<svg width="48" height="48" viewBox="0 0 48 48" fill="none" xmlns="http://www.w3.org/2000/svg">
<path d="M31.19 8.40933H16.81C12.17 8.40933 8.40933 12.1707 8.40933 16.81V31.19C8.40933 35.83 12.1707 39.5907 16.8107 39.5907H31.1893C35.8293 39.5907 39.5907 35.8293 39.5907 31.1893V16.81C39.5907 12.17 35.83 8.40933 31.19 8.40933Z" stroke="#F4DFC8" stroke-width="2" stroke-miterlimit="10"/>
<path d="M24 31.5267C28.1569 31.5267 31.5267 28.1569 31.5267 24C31.5267 19.8431 28.1569 16.4733 24 16.4733C19.8431 16.4733 16.4733 19.8431 16.4733 24C16.4733 28.1569 19.8431 31.5267 24 31.5267Z" stroke="#F4DFC8" stroke-width="2" stroke-miterlimit="10"/>
<path d="M33.1393 16.4733C34.03 16.4733 34.752 15.7513 34.752 14.8607C34.752 13.97 34.03 13.248 33.1393 13.248C32.2487 13.248 31.5267 13.97 31.5267 14.8607C31.5267 15.7513 32.2487 16.4733 33.1393 16.4733Z" fill="#F4DFC8"/>
</svg>
