<svg width="48" height="51" viewBox="0 0 48 51" fill="none" xmlns="http://www.w3.org/2000/svg">
<path d="M18.73 23.539C16.6451 23.5369 14.6064 24.1841 12.8712 25.3987C11.1361 26.6133 9.78231 28.341 8.98083 30.3635C8.17934 32.386 7.96609 34.6128 8.368 36.7626C8.76991 38.9124 9.76895 40.8889 11.239 42.4424C12.709 43.996 14.5842 45.0571 16.6276 45.4916C18.6711 45.9262 20.7913 45.7147 22.7205 44.884C24.6497 44.0532 26.3014 42.6404 27.467 40.824C28.6327 39.0075 29.2601 36.8688 29.27 34.678V4.72882C29.27 7.66913 30.3815 10.489 32.36 12.5681C34.3385 14.6472 37.022 15.8153 39.82 15.8153" stroke="#F4DFC8" stroke-linecap="round" stroke-linejoin="round"/>
</svg>
